<?xml version='1.0' encoding='UTF-8'?>
<svg xmlns:dc="http://purl.org/dc/elements/1.1/" xmlns:cc="http://creativecommons.org/ns#" xmlns:rdf="http://www.w3.org/1999/02/22-rdf-syntax-ns#" xmlns:svg="http://www.w3.org/2000/svg" xmlns="http://www.w3.org/2000/svg" xmlns:sodipodi="http://sodipodi.sourceforge.net/DTD/sodipodi-0.dtd" xmlns:inkscape="http://www.inkscape.org/namespaces/inkscape" version="1.1" id="Logotype" x="0px" y="0px" width="4000px" height="3326px" viewBox="0 0 4000 3326" sodipodi:docname="source.svg" inkscape:version="0.92.3 (2405546, 2018-03-11)">
  <!--Creator: logaster.com--><metadata id="metadata19">
    <rdf:RDF>
      <cc:Work rdf:about="">
        <dc:format>image/svg+xml</dc:format>
        <dc:type rdf:resource="http://purl.org/dc/dcmitype/StillImage"/>
      </cc:Work>
    </rdf:RDF>
  </metadata>
  <sodipodi:namedview pagecolor="#ffffff" bordercolor="#666666" borderopacity="1" objecttolerance="10" gridtolerance="10" guidetolerance="10" inkscape:pageopacity="0" inkscape:pageshadow="2" inkscape:window-width="640" inkscape:window-height="480" id="namedview17" showgrid="false" inkscape:zoom="0.070956103" inkscape:cx="2000" inkscape:cy="1663" inkscape:window-x="0" inkscape:window-y="0" inkscape:window-maximized="0" inkscape:current-layer="Logotype"/>
  <!--Creator: logaster.com-->
  <defs id="defs2"/>
  <path d="m 1324.7351,2283.4119 -327.72552,1.3777 -327.68778,2.0573 -326.99298,3.0487 1.76736,-163.0803 1.44007,-163.85 1.76705,-327.7504 0.88524,-327.6978 c 0.29923,-90.5219 -0.0623,-181.0529 -0.25872,-271.6188 l 276.33799,-4.3576 163.86586,-2.7205 163.85963,-1.6334 163.8565,-0.3366 163.8225,0.6203 q 81.9342,0.5424 163.8316,1.7144 l 153.4425,2.032 -2.3596,153.7323 q -0.7013,41.3606 -1.2191,82.6923 h 28.0627 q -0.519,-41.3236 -1.2125,-82.6929 l -2.5709,-163.8596 -0.1309,-10.3922 -10.1865,0.1 -163.8254,2.2355 q -81.9301,1.2285 -163.8315,1.739 l -163.8226,0.6203 -163.85649,-0.3986 -163.85963,-1.5716 -163.86586,-2.7493 -276.44428,-4.3919 v -20.25076 l 321.49765,-1.9949 163.85651,-1.11684 163.83158,-0.49187 163.86902,-0.293 163.8568,0.36158 323.5546,1.40547 -1.2718,283.74062 h 10.8074 l -1.2817,-287.80462 -0.037,-4.11823 -4.127,0.0277 -327.6444,1.44008 -163.8569,0.32728 -163.86893,-0.26432 -163.83158,-0.52429 -163.8562,-1.07756 -327.74419,-2.00425 -6.2372,-0.0287 v 6.22223 c 0,8.78382 -0.0281,17.45823 -0.0281,26.27658 l -38.75976,-0.6274 -15.46363,-0.255 -0.15897,15.8592 c -0.39649,54.6576 -1.14707,109.2715 -1.08473,163.8596 -0.13403,54.6479 -0.24001,109.2429 0.13092,163.8568 l 0.65458,163.8659 1.41201,163.8506 1.89205,163.8658 2.62454,163.8597 1.64268,81.9158 1.96062,81.9064 2.00737,81.9158 2.58091,83.7452 1.80165,0.072 c 54.65728,1.7051 109.24287,2.9488 163.86586,4.1613 l 81.94384,1.9326 81.90644,1.5401 163.86586,2.7832 81.94384,1.3684 81.91579,1.0255 327.67873,3.376 c 109.2113,1.3061 218.4449,1.3061 327.6569,1.9264 l 20.055,0.1309 v -53.7041 h 24.9955 l 7.8024,0.072 v -7.7677 l 0.062,-219.9102 h -15.6042 l 0.044,212.2052 h -17.2997 v -114.8722 q -0.024,-48.6399 -0.1152,-97.3327 h -39.7516 q -0.1434,48.6776 -0.1404,97.3327 v 114.9785 z m -1023.79152,-33.4268 1.9949,-81.9158 1.96966,-81.9065 1.67073,-81.9157 2.59026,-163.8597 1.93568,-163.8658 1.40267,-163.8506 0.65458,-163.8659 c 0.32729,-54.6139 0.23066,-109.2086 0.0969,-163.8568 0.0717,-49.4733 -0.52055,-98.9778 -0.95382,-148.458 l 22.91024,-0.3616 c -0.19326,90.4596 -0.52054,180.9282 -0.26495,271.3878 l 0.88524,327.6978 1.83594,327.7504 1.44007,163.8499 1.74242,164.5922 328.46735,3.0488 327.68778,2.0946 327.72557,1.3431 262.6417,0.3869 v 13.7212 c -102.5475,0.6016 -205.148,0.7078 -307.7045,1.8484 l -327.67874,3.4103 -81.91579,1.0068 -81.94384,1.4148 -163.86586,2.7833 -81.90582,1.5463 -81.94384,1.864 q -80.95262,1.8001 -161.94015,4.1176 z" id="body1" inkscape:connector-curvature="0" style="fill:#5a5a5a;stroke-width:31.17039108"/>
  <g aria-label="ALLIANCE" style="font-weight:normal;font-size:707.14630127px;font-family:'Intro Cond Light Free';letter-spacing:7.07146263px;fill:#5a5a5a;stroke-width:29.46442795" id="body2">
    <path d="m 1193.3094,1874.2159 h -126.5792 l -21.9215,-61.5217 H 904.08655 l -21.92153,61.5217 H 754.17154 v -7.7786 l 190.22235,-494.2952 h 60.81461 l 188.1009,494.2952 z M 938.73672,1712.2794 h 71.42178 q -24.04298,-74.2503 -36.06446,-140.7221 -14.14293,70.0075 -35.35732,140.7221 z" style="font-weight:normal;font-size:707.14630127px;font-family:'Intro Cond Light Free';letter-spacing:7.07146263px;fill:#5a5a5a;stroke-width:29.46442795" id="path3739"/>
    <path d="m 1497.6475,1758.2439 v 115.972 h -259.5227 v -495.0024 h 122.3363 v 379.0304 z" style="font-weight:normal;font-size:707.14630127px;font-family:'Intro Cond Light Free';letter-spacing:7.07146263px;fill:#5a5a5a;stroke-width:29.46442795" id="path3741"/>
    <path d="m 1812.7143,1758.2439 v 115.972 h -259.5227 v -495.0024 h 122.3363 v 379.0304 z" style="font-weight:normal;font-size:707.14630127px;font-family:'Intro Cond Light Free';letter-spacing:7.07146263px;fill:#5a5a5a;stroke-width:29.46442795" id="path3743"/>
    <path d="m 2074.7452,1874.2159 h -222.0439 v -104.6576 h 49.5002 v -285.6871 h -44.5502 v -104.6577 h 212.1439 v 104.6577 h -45.2574 v 285.6871 h 50.2074 z" style="font-weight:normal;font-size:707.14630127px;font-family:'Intro Cond Light Free';letter-spacing:7.07146263px;fill:#5a5a5a;stroke-width:29.46442795" id="path3745"/>
    <path d="M 2496.3922,1874.2159 H 2369.813 l -21.9216,-61.5217 h -140.7221 l -21.9215,61.5217 h -127.9935 v -7.7786 l 190.2224,-494.2952 h 60.8145 l 188.101,494.2952 z m -254.5727,-161.9365 h 71.4218 q -24.043,-74.2503 -36.0645,-140.7221 -14.1429,70.0075 -35.3573,140.7221 z" style="font-weight:normal;font-size:707.14630127px;font-family:'Intro Cond Light Free';letter-spacing:7.07146263px;fill:#5a5a5a;stroke-width:29.46442795" id="path3747"/>
    <path d="m 2662.8367,1874.2159 h -122.3363 v -499.2452 h 38.1859 l 208.6082,240.4297 v -236.1869 h 122.3363 v 498.5382 h -35.3573 l -211.4368,-244.6726 z" style="font-weight:normal;font-size:707.14630127px;font-family:'Intro Cond Light Free';letter-spacing:7.07146263px;fill:#5a5a5a;stroke-width:29.46442795" id="path3749"/>
    <path d="m 2974.5557,1627.4219 q 0,-115.2649 58.6931,-185.2723 59.4003,-70.0075 156.2794,-70.0075 72.836,0 131.5292,48.7931 58.6931,48.0859 68.5932,140.7221 h -117.3863 q -18.3858,-72.8361 -82.7361,-72.8361 -41.7217,0 -67.8861,38.1859 -25.4572,37.4788 -25.4572,99.7076 0,60.8146 25.4572,98.2934 26.1644,37.4787 68.5932,37.4787 32.5287,0 54.4503,-19.8001 21.9215,-19.8001 28.2858,-58.6931 h 118.0935 q -7.0715,67.1789 -38.8931,113.1434 -31.8216,45.2574 -73.5432,64.3503 -41.0145,19.093 -89.1004,19.093 -96.8791,0 -156.2794,-69.3004 -58.6931,-70.0075 -58.6931,-183.858 z" style="font-weight:normal;font-size:707.14630127px;font-family:'Intro Cond Light Free';letter-spacing:7.07146263px;fill:#5a5a5a;stroke-width:29.46442795" id="path3751"/>
    <path d="m 3583.0108,1491.6498 v 70.7146 H 3714.54 v 113.1434 h -131.5292 v 80.6147 h 149.915 v 118.0934 h -271.5441 v -495.0024 h 265.887 v 112.4363 z" style="font-weight:normal;font-size:707.14630127px;font-family:'Intro Cond Light Free';letter-spacing:7.07146263px;fill:#5a5a5a;stroke-width:29.46442795" id="path3753"/>
  </g>
</svg>